<?xml version="1.0" encoding="UTF-8"?>
<svg version="1.1" xmlns="http://www.w3.org/2000/svg" width="279" height="279">
<path d="M0 0 C92.07 0 184.14 0 279 0 C279 92.07 279 184.14 279 279 C186.93 279 94.86 279 0 279 C0 186.93 0 94.86 0 0 Z " fill="#050D16" transform="translate(0,0)"/>
<path d="M0 0 C3.9128538 0.10915614 7.82591289 0.1100568 11.74005365 0.12424803 C18.2927013 0.16261467 24.84105491 0.26956133 31.3918786 0.42713499 C40.62573436 0.64911992 49.85776091 0.74324537 59.09384179 0.81345248 C66.28997643 0.87265624 73.48574515 0.96548299 80.68142939 1.06434202 C81.44954116 1.07459048 82.21765294 1.08483893 83.00904083 1.09539795 C87.41901476 1.15640977 91.82809211 1.23455542 96.23727274 1.33838224 C98.20522927 1.38191243 100.17347589 1.41164475 102.1416955 1.44095945 C103.31592066 1.47254148 104.49014582 1.50412352 105.69995356 1.53666258 C107.22675902 1.56953084 107.22675902 1.56953084 108.78440905 1.60306311 C114.33765246 2.44652049 117.71436354 5.93206422 121.54080439 9.80652952 C122.91752314 11.19291624 122.91752314 11.19291624 124.32205439 12.60731077 C125.27790653 13.57984617 126.23363451 14.55250361 127.18924189 15.52527952 C128.15231578 16.49839894 129.1158534 17.47105964 130.07986689 18.44324827 C131.84728989 20.22809658 133.61265108 22.01499062 135.37527704 23.8045764 C137.40070853 25.94547297 137.40070853 25.94547297 139.17679071 27.31873655 C141.14417044 29.73858246 140.94501994 31.45759205 140.95242548 34.55067015 C140.96188196 35.68194334 140.97133844 36.81321653 140.98108149 37.97877073 C140.97197245 39.81163633 140.97197245 39.81163633 140.96267939 41.68152952 C140.96698465 43.56225157 140.96698465 43.56225157 140.9713769 45.480968 C140.97342016 48.13423703 140.96937657 50.78667924 140.95535517 53.4398303 C140.93826275 56.83969586 140.94810505 60.23885098 140.96607256 63.63869047 C140.97952278 66.8821623 140.97010422 70.12554843 140.96267939 73.36902952 C140.96875208 74.59093992 140.97482477 75.81285032 140.98108149 77.07178831 C140.96689676 78.7686981 140.96689676 78.7686981 140.95242548 80.4998889 C140.9500387 81.49677732 140.94765192 82.49366575 140.94519281 83.52076292 C140.56424189 86.02527952 140.56424189 86.02527952 139.22566462 87.84635496 C136.58945027 89.71697933 134.18419208 89.41462984 130.99783564 89.42371702 C129.06327509 89.4295178 129.06327509 89.4295178 127.08963251 89.43543577 C126.41907831 89.42915159 125.74852411 89.42286741 125.05765009 89.4163928 C123.00513712 89.40030613 120.95458504 89.41626087 118.90213251 89.43543577 C116.96950556 89.42963499 116.96950556 89.42963499 114.99783564 89.42371702 C113.8124621 89.42033323 112.62708857 89.41694944 111.40579462 89.41346312 C109.99922602 89.22131224 109.99922602 89.22131224 108.56424189 89.02527952 C106.23982373 85.53865229 106.32022448 84.19950029 106.3371911 80.08509398 C106.3374177 78.25353506 106.3374177 78.25353506 106.33764887 76.38497496 C106.34797144 75.06615828 106.35829401 73.74734159 106.36892939 72.38856077 C106.37266027 71.02521551 106.37550689 69.66186756 106.37750483 68.29851866 C106.38513536 64.71293798 106.40477874 61.12751973 106.42691278 57.54200315 C106.44738378 53.88215409 106.45650922 50.22227873 106.46658564 46.5623889 C106.48802528 39.38327845 106.5221541 32.20430176 106.56424189 25.02527952 C103.92424189 25.02527952 101.28424189 25.02527952 98.56424189 25.02527952 C98.58780756 26.45577635 98.58780756 26.45577635 98.61184931 27.9151721 C98.66615867 31.45414865 98.70059522 34.99308838 98.72903681 38.5323596 C98.74412125 40.06399814 98.76459167 41.5955935 98.79056025 43.12708616 C98.82696036 45.32893606 98.84397102 47.53021485 98.85721064 49.73231077 C98.87269449 50.41678785 98.88817835 51.10126493 98.90413141 51.80648375 C98.90509587 54.5324123 98.82471665 56.57354706 97.44705439 58.96277952 C94.64549042 60.54374508 92.34551093 60.36167684 89.14627314 60.31824827 C87.89265985 60.3085803 86.63904657 60.29891233 85.34744501 60.2889514 C84.03711298 60.26381468 82.72678095 60.23867796 81.37674189 60.21277952 C80.04147025 60.19772919 78.70618252 60.18404139 77.37088251 60.1717639 C74.10159612 60.13635646 70.83312096 60.08696842 67.56424189 60.02527952 C67.56424189 62.66527952 67.56424189 65.30527952 67.56424189 68.02527952 C68.3234997 67.97887327 69.08275751 67.93246702 69.86502314 67.88465452 C70.85889032 67.84856077 71.85275751 67.81246702 72.87674189 67.77527952 C73.8628747 67.72887327 74.84900751 67.68246702 75.86502314 67.63465452 C78.56424189 68.02527952 78.56424189 68.02527952 80.20364618 69.70814085 C82.7607254 74.06292981 82.07591071 79.03561826 82.06424189 83.96277952 C82.09260126 85.04752562 82.12096064 86.13227171 82.15017939 87.2498889 C82.16154866 91.87434092 82.04615109 95.11977433 79.85330439 99.24012327 C74.56088512 102.11261212 69.35887897 101.74690037 63.43924189 101.65027952 C62.24685907 101.66961546 61.05447626 101.6889514 59.82596064 101.70887327 C58.11473017 101.6992053 58.11473017 101.6992053 56.36892939 101.68934202 C55.32720575 101.68370237 54.28548212 101.67806273 53.2121911 101.67225218 C50.56424189 101.02527952 50.56424189 101.02527952 48.72757196 98.64002562 C47.4263137 95.71526674 47.03668566 94.18075599 47.56424189 91.02527952 C49.13846064 88.52527952 49.13846064 88.52527952 51.25174189 86.02527952 C52.34035517 84.71623655 52.34035517 84.71623655 53.45096064 83.38074827 C55.09330914 81.55018238 56.71437902 79.94241561 58.56424189 78.33777952 C60.88559628 76.08626475 60.88559628 76.08626475 61.00174189 72.52527952 C60.59759489 69.29210356 59.82854732 66.99055814 58.56424189 64.02527952 C54.52583618 63.95084062 50.48769896 63.89654223 46.44876337 63.8604846 C45.07629672 63.8454452 43.70387775 63.8250082 42.33157587 63.79896116 C40.35335532 63.76236731 38.37477675 63.74711254 36.39627314 63.73231077 C35.20751581 63.71660032 34.01875849 63.70088987 32.79397821 63.68470335 C28.96211183 64.08877423 26.30724832 65.28227309 23.56424189 68.02527952 C22.7608851 73.33479936 22.7608851 73.33479936 24.97439814 78.00721312 C26.93515468 80.00327556 28.95831339 81.87056639 31.06424189 83.71277952 C32.48136352 84.97542213 33.88816357 86.249771 35.28299189 87.53699827 C36.22561884 88.36397215 36.22561884 88.36397215 37.18728876 89.20765257 C38.56424189 91.02527952 38.56424189 91.02527952 38.95682001 93.4932971 C38.47347821 96.61067135 37.91884577 97.90746155 35.56424189 100.02527952 C32.60916376 100.51111937 32.60916376 100.51111937 29.03299189 100.48621702 C27.74779657 100.48234983 26.46260126 100.47848265 25.13846064 100.47449827 C24.13565058 100.45588743 24.13565058 100.45588743 23.11258173 100.43690062 C21.07122062 100.40040429 19.03167635 100.39588119 16.99002314 100.39637327 C6.98541388 100.30606085 6.98541388 100.30606085 3.56424189 98.02527952 C3.22366571 95.31971312 3.22366571 95.31971312 3.27127314 91.92371702 C3.28577509 90.1061389 3.28577509 90.1061389 3.30057001 88.25184202 C3.32570673 86.9808264 3.35084345 85.70981077 3.37674189 84.40027952 C3.39704462 82.48215452 3.39704462 82.48215452 3.41775751 80.52527952 C3.45320993 77.3581967 3.50262748 74.19194411 3.56424189 71.02527952 C6.58379033 69.43750958 8.90253316 68.70131264 12.31424189 68.40027952 C13.51307001 68.28813108 13.51307001 68.28813108 14.73611689 68.17371702 C15.33939814 68.12473265 15.94267939 68.07574827 16.56424189 68.02527952 C16.56424189 65.71527952 16.56424189 63.40527952 16.56424189 61.02527952 C6.99424189 60.69527952 -2.57575811 60.36527952 -12.43575811 60.02527952 C-13.94182326 57.01314923 -13.55736142 53.9124533 -13.53341436 50.61121702 C-13.53199942 49.88157743 -13.53058447 49.15193785 -13.52912664 48.40018797 C-13.52352342 46.06684367 -13.51097046 43.73359488 -13.49825811 41.40027952 C-13.49324353 39.81955174 -13.48868055 38.23882246 -13.48458624 36.65809202 C-13.47355296 32.78045098 -13.45628622 28.90288145 -13.43575811 25.02527952 C-16.40575811 25.02527952 -19.37575811 25.02527952 -22.43575811 25.02527952 C-22.42909628 25.79757902 -22.42243444 26.56987852 -22.41557074 27.36558104 C-22.35552315 34.63471418 -22.30981633 41.90372752 -22.2803216 49.17304373 C-22.26464839 52.91051748 -22.24338051 56.64778675 -22.20943975 60.3851428 C-22.17690445 63.99019592 -22.15891757 67.59505204 -22.15112638 71.20024061 C-22.14557231 72.57741604 -22.13472676 73.95458037 -22.11856794 75.33167219 C-22.09687376 77.25661583 -22.0955334 79.18175664 -22.09518194 81.10682249 C-22.08852011 82.20380461 -22.08185827 83.30078672 -22.07499456 84.43101072 C-22.19404654 85.28711943 -22.31309851 86.14322813 -22.43575811 87.02527952 C-27.1957482 90.19860625 -32.34307668 89.35911752 -37.94234991 89.34095335 C-39.99472507 89.33778498 -42.04566966 89.36129008 -44.09786749 89.38660765 C-46.03049444 89.38757444 -46.03049444 89.38757444 -48.00216436 89.38856077 C-49.1875379 89.39154173 -50.37291143 89.39452269 -51.59420538 89.39759398 C-52.53191778 89.27473021 -53.46963018 89.15186644 -54.43575811 89.02527952 C-56.66768937 85.67738263 -56.70732653 84.49925097 -56.77389288 80.5792346 C-56.79633566 79.46409986 -56.81877844 78.34896513 -56.8419013 77.20003843 C-56.85353811 75.9938133 -56.86517492 74.78758818 -56.87716436 73.54481077 C-56.89093618 72.30285444 -56.904708 71.06089811 -56.91889715 69.78130674 C-56.94219522 67.14918302 -56.96010284 64.51753796 -56.9711585 61.88538694 C-56.98438943 59.19520654 -57.01910565 56.5066822 -57.07369757 53.81702757 C-57.14694207 49.93411472 -57.17358726 46.05333334 -57.18966436 42.16981077 C-57.21951925 40.9737068 -57.24937414 39.77760283 -57.28013372 38.54525328 C-57.27420706 37.41435774 -57.26828039 36.2834622 -57.26217413 35.1182971 C-57.271686 34.13251173 -57.28119787 33.14672636 -57.29099798 32.13106871 C-56.19839104 28.163285 -54.23561748 26.17248033 -51.44592333 23.21261072 C-49.37655122 20.96085443 -47.58044793 18.60293281 -45.74700689 16.15671873 C-32.7206638 0.01816198 -19.32079011 -0.63745819 0 0 Z " fill="#F0A441" transform="translate(97.43575811386108,106.97472047805786)"/>
<path d="M0 0 C0.74636719 0.28875 1.49273437 0.5775 2.26171875 0.875 C7.95158118 3.30267464 11.2087367 7.23304393 15 12 C15.886875 12.969375 16.77375 13.93875 17.6875 14.9375 C24.56166259 24.04112072 29.11681762 37.60846026 28 49 C26.13312423 50.86687577 23.45718552 50.12006498 20.97367859 50.12442017 C20.10765518 50.12082489 19.24163177 50.11722961 18.34936523 50.11352539 C16.9885231 50.11374443 16.9885231 50.11374443 15.60018921 50.1139679 C12.58630015 50.11326841 9.57247207 50.10547434 6.55859375 50.09765625 C4.47494033 50.0957922 2.39128646 50.09436824 0.30763245 50.09336853 C-5.18823446 50.08954234 -10.68407513 50.0797112 -16.17993164 50.06866455 C-21.78336227 50.0584526 -27.38679713 50.05387137 -32.99023438 50.04882812 C-43.99350114 50.03808902 -54.99674839 50.02101139 -66 50 C-66.07158399 44.91721403 -66.06099657 41.68343703 -64 37 C-63.64047232 35.57475439 -63.30729343 34.14275178 -62.9921875 32.70703125 C-60.77444627 22.83038161 -58.64040506 15.1176405 -51 8 C-49.83597656 6.89591797 -49.83597656 6.89591797 -48.6484375 5.76953125 C-34.79474422 -6.3029729 -16.50912531 -7.30357617 0 0 Z " fill="#1D5EA9" transform="translate(159,28)"/>
<path d="M0 0 C2.64 0.33 5.28 0.66 8 1 C7.99887207 1.83660156 7.99774414 2.67320312 7.99658203 3.53515625 C8.00657684 6.67439576 8.04337067 9.81192129 8.09765625 12.95068359 C8.12450695 14.96304755 8.12112979 16.97574203 8.1171875 18.98828125 C8.26092912 26.13942689 8.59648855 31.09798636 13.42529297 36.58203125 C17.16751027 39.95176739 19.77486319 40.33316019 24.6875 40.625 C25.86699219 40.69976562 27.04648438 40.77453125 28.26171875 40.8515625 C29.16535156 40.90054688 30.06898437 40.94953125 31 41 C31.04898438 42.03640625 31.09796875 43.0728125 31.1484375 44.140625 C31.22349597 45.51044208 31.29904247 46.88023248 31.375 48.25 C31.4059375 48.93191406 31.436875 49.61382812 31.46875 50.31640625 C31.73014445 55.4939571 31.73014445 55.4939571 34 60 C39.69749932 64.22909866 45.94556133 63.52204396 52.71948242 63.50097656 C54.92824665 63.50000407 57.13353352 63.54165908 59.34179688 63.5859375 C60.75780532 63.59114544 62.17382573 63.59383268 63.58984375 63.59375 C65.50591431 63.60438477 65.50591431 63.60438477 67.46069336 63.61523438 C72.12527693 62.80439416 73.67001764 61.31562767 77 58 C79.40119059 54.39821412 79.43771322 51.49133631 79.625 47.3125 C79.66367188 46.61060547 79.70234375 45.90871094 79.7421875 45.18554688 C79.8362334 43.45745345 79.9191968 41.72876325 80 40 C81.03640625 39.89042969 82.0728125 39.78085938 83.140625 39.66796875 C84.51049264 39.50846361 85.88028037 39.34827116 87.25 39.1875 C87.93191406 39.11724609 88.61382812 39.04699219 89.31640625 38.97460938 C93.44733189 38.47328345 95.83198757 37.6521205 99 35 C99.99 35 100.98 35 102 35 C102.33 23.78 102.66 12.56 103 1 C105.64 1 108.28 1 111 1 C111.02578125 2.22976562 111.0515625 3.45953125 111.078125 4.7265625 C111.13443006 6.35940932 111.19177685 7.99222045 111.25 9.625 C111.26417969 10.43324219 111.27835937 11.24148437 111.29296875 12.07421875 C111.55258279 18.46072407 113.32841421 22.13758666 117.75 26.875 C118.1625 27.24625 118.575 27.6175 119 28 C117.67143806 30.92643237 116.20435823 33.0700763 113.98828125 35.390625 C113.39877686 36.01364502 112.80927246 36.63666504 112.2019043 37.27856445 C111.57840088 37.92913818 110.95489746 38.57971191 110.3125 39.25 C109.03296904 40.60202747 107.75431233 41.95488288 106.4765625 43.30859375 C105.86844727 43.9516748 105.26033203 44.59475586 104.63378906 45.25732422 C102.22960326 47.82174117 99.92039844 50.46020708 97.62890625 53.125 C95.66334911 55.38751181 93.64326691 57.59690683 91.625 59.8125 C87.59853806 64.26569807 83.79374946 68.86791962 80.04296875 73.5546875 C79.36878906 74.36164063 78.69460937 75.16859375 78 76 C77.1970752 77.04812866 77.1970752 77.04812866 76.37792969 78.11743164 C73.05166323 80.75078283 69.98007127 80.59328091 65.91015625 80.56640625 C65.12861679 80.57260483 64.34707733 80.57880341 63.54185486 80.58518982 C61.89192956 80.59228103 60.2419326 80.58912605 58.59204102 80.57641602 C56.0736856 80.56256154 53.55905655 80.59660976 51.04101562 80.63476562 C49.43489493 80.63571702 47.8287696 80.63385691 46.22265625 80.62890625 C45.09900414 80.64879356 45.09900414 80.64879356 43.95265198 80.66908264 C39.94478649 80.59808058 38.21949718 80.18383097 35.10620117 77.57641602 C34.41115479 76.72619873 33.7161084 75.87598145 33 75 C32.36578125 74.38898438 31.7315625 73.77796875 31.078125 73.1484375 C27.41174555 69.59173607 24.06528147 65.92831678 20.875 61.9375 C16.54569641 56.53524942 11.87021078 51.53200741 7.10986328 46.5090332 C2.9568658 42.09995124 -0.88267773 37.58499413 -4.546875 32.7578125 C-5.89746775 30.88275275 -5.89746775 30.88275275 -8 30 C-8 29.01 -8 28.02 -8 27 C-5.46815512 24.64276511 -4.52809907 24 -1 24 C-0.67 16.08 -0.34 8.16 0 0 Z " fill="#1D5DA8" transform="translate(84,175)"/>
<path d="M0 0 C1.04458878 -0.00563965 2.08917755 -0.0112793 3.16542053 -0.01708984 C4.88376602 -0.01101715 4.88376602 -0.01101715 6.63682556 -0.00482178 C7.8434938 -0.00832642 9.05016205 -0.01183105 10.293396 -0.01544189 C13.60325227 -0.02274285 16.91285895 -0.0210223 20.22270131 -0.01468372 C23.68377983 -0.0096245 27.14484759 -0.01431485 30.60592651 -0.01745605 C36.41735248 -0.02109544 42.22872762 -0.01629683 48.04014587 -0.0067749 C54.76406678 0.00411474 61.48786645 0.00058031 68.21178442 -0.01042771 C73.98084111 -0.01949529 79.74986124 -0.02078863 85.51892275 -0.01555037 C88.96634086 -0.0124284 92.41370193 -0.01202763 95.86111641 -0.01862335 C99.70176557 -0.02545814 103.5422782 -0.01599273 107.38291931 -0.00482178 C108.5305072 -0.00887024 109.67809509 -0.0129187 110.86045837 -0.01708984 C112.4231118 -0.00863037 112.4231118 -0.00863037 114.01733398 0 C114.92601258 0.00075405 115.83469118 0.0015081 116.77090549 0.002285 C118.94517517 0.25396729 118.94517517 0.25396729 120.94517517 2.25396729 C120.94517517 6.21396729 120.94517517 10.17396729 120.94517517 14.25396729 C78.37517517 14.25396729 35.80517517 14.25396729 -8.05482483 14.25396729 C-8.05482483 10.29396729 -8.05482483 6.33396729 -8.05482483 2.25396729 C-4.76743267 0.06237251 -3.81282033 0.00316269 0 0 Z " fill="#1C5BA5" transform="translate(83.05482482910156,85.74603271484375)"/>
<path d="M0 0 C3.50997808 0.83899627 6.99817468 1.21898121 10.58203125 1.6171875 C10.60888537 3.92962542 10.62835966 6.2421502 10.64453125 8.5546875 C10.65613281 9.84246094 10.66773438 11.13023437 10.6796875 12.45703125 C10.58203125 15.6171875 10.58203125 15.6171875 9.58203125 16.6171875 C5.46625536 16.83507936 1.34738202 16.80297938 -2.77368164 16.80249023 C-4.84347139 16.80467484 -6.91272668 16.82282241 -8.98242188 16.84179688 C-10.27986328 16.84373047 -11.57730469 16.84566406 -12.9140625 16.84765625 C-14.11216553 16.85176514 -15.31026855 16.85587402 -16.54467773 16.86010742 C-19.41796875 16.6171875 -19.41796875 16.6171875 -21.41796875 14.6171875 C-21.61328125 11.796875 -21.61328125 11.796875 -21.54296875 8.4921875 C-21.52492188 7.39648438 -21.506875 6.30078125 -21.48828125 5.171875 C-21.46507813 4.32882813 -21.441875 3.48578125 -21.41796875 2.6171875 C-20.82628906 2.57980469 -20.23460938 2.54242188 -19.625 2.50390625 C-14.49820403 2.16041346 -14.49820403 2.16041346 -9.98046875 -0.0703125 C-6.33221343 -1.93893108 -3.87975179 -0.94230853 0 0 Z " fill="#F79536" transform="translate(145.41796875,213.3828125)"/>
<path d="M0 0 C0.89783203 -0.01998047 1.79566406 -0.03996094 2.72070312 -0.06054688 C9.19765305 -0.0557313 9.19765305 -0.0557313 12.5390625 2.171875 C14.13432666 4.75638118 14.39426671 6.11529791 14.25 9.125 C14.22550781 9.91261719 14.20101562 10.70023438 14.17578125 11.51171875 C13.9375 13.4375 13.9375 13.4375 12.9375 14.4375 C10.60452567 14.47842937 8.27044775 14.47991723 5.9375 14.4375 C5.6075 12.7875 5.2775 11.1375 4.9375 9.4375 C1.3075 9.4375 -2.3225 9.4375 -6.0625 9.4375 C-6.3925 11.0875 -6.7225 12.7375 -7.0625 14.4375 C-9.7025 14.4375 -12.3425 14.4375 -15.0625 14.4375 C-15.19763292 12.6687602 -15.29455586 10.89706945 -15.375 9.125 C-15.43300781 8.13886719 -15.49101562 7.15273437 -15.55078125 6.13671875 C-15.0625 3.4375 -15.0625 3.4375 -13.171875 1.609375 C-8.74893993 -0.05756033 -4.68885964 -0.03718634 0 0 Z " fill="#1C1C1A" transform="translate(160.0625,136.5625)"/>
<path d="M0 0 C0.95003906 -0.02384766 1.90007812 -0.04769531 2.87890625 -0.07226562 C9.76699643 -0.05773379 9.76699643 -0.05773379 13.140625 2.796875 C14.5448041 5.65365317 14.93768562 7.2312658 14.75 10.375 C14.71390625 11.16519531 14.6778125 11.95539063 14.640625 12.76953125 C14.57101563 13.65705078 14.57101563 13.65705078 14.5 14.5625 C11.86 14.5625 9.22 14.5625 6.5 14.5625 C6.17 12.9125 5.84 11.2625 5.5 9.5625 C1.87 9.5625 -1.76 9.5625 -5.5 9.5625 C-5.83 11.2125 -6.16 12.8625 -6.5 14.5625 C-8.83294775 14.60491723 -11.16702567 14.60342937 -13.5 14.5625 C-15.06941198 12.99308802 -14.7449847 11.42115006 -14.8125 9.25 C-14.84988281 8.47011719 -14.88726562 7.69023437 -14.92578125 6.88671875 C-14.5 4.5625 -14.5 4.5625 -13.13671875 2.3046875 C-8.97589324 -0.44453943 -4.87609935 -0.05623724 0 0 Z " fill="#1C1C1A" transform="translate(119.5,136.4375)"/>
<path d="M0 0 C1 1 1 1 1.09765625 2.84765625 C1.06510417 4.8984375 1.03255208 6.94921875 1 9 C-0.17755859 9.22042969 -0.17755859 9.22042969 -1.37890625 9.4453125 C-9.26944127 11.12991752 -14.71249124 13.11289742 -19.30859375 19.9453125 C-20.27248326 21.59292985 -21.14633427 23.29266853 -22 25 C-24.9375 24.1875 -24.9375 24.1875 -28 23 C-29 20 -29 20 -28.4375 17.75 C-24.30054703 9.8358291 -17.75530505 4.17550263 -9.375 1.1875 C-6.17801164 0.22185676 -3.36245084 -0.42030635 0 0 Z " fill="#061425" transform="translate(136,31)"/>
<path d="M0 0 C2.97 0 5.94 0 9 0 C9 10.23 9 20.46 9 31 C6.36 31 3.72 31 1 31 C0 30 0 30 -0.11352539 27.13256836 C-0.10828857 25.88096924 -0.10305176 24.62937012 -0.09765625 23.33984375 C-0.0962413 22.67537735 -0.09482635 22.01091095 -0.09336853 21.3263092 C-0.08775518 19.19666101 -0.07520054 17.06711661 -0.0625 14.9375 C-0.05748671 13.49674631 -0.05292351 12.05599097 -0.04882812 10.61523438 C-0.03778145 7.07678898 -0.02050792 3.53840461 0 0 Z " fill="#040C16" transform="translate(49,158)"/>
<path d="M0 0 C2.97 0 5.94 0 9 0 C9.02465746 4.1117256 9.04283959 8.22342278 9.05493164 12.33520508 C9.0599708 13.73495228 9.06680216 15.1346942 9.07543945 16.53442383 C9.0875232 18.54245777 9.09269807 20.55052957 9.09765625 22.55859375 C9.10289307 23.76829834 9.10812988 24.97800293 9.11352539 26.22436523 C9 29 9 29 8 30 C4.5 30.125 4.5 30.125 1 30 C0 29 0 29 -0.11352539 26.22436523 C-0.10828857 25.01466064 -0.10305176 23.80495605 -0.09765625 22.55859375 C-0.09443359 21.25341797 -0.09121094 19.94824219 -0.08789062 18.60351562 C-0.07953401 17.2148431 -0.07106905 15.82617123 -0.0625 14.4375 C-0.05748666 13.04492344 -0.05292347 11.65234519 -0.04882812 10.25976562 C-0.03699434 6.8398013 -0.0205088 3.41992156 0 0 Z " fill="#1F1A19" transform="translate(211,159)"/>
<path d="M0 0 C1.42686736 0.57966486 2.84262287 1.18699906 4.25 1.8125 C7.84166274 3.11855918 11.19962955 3.42602165 15 3.8125 C14.125 7.6875 14.125 7.6875 13 8.8125 C10.85441173 8.90025605 8.70595579 8.91945219 6.55859375 8.91015625 C5.25341797 8.90693359 3.94824219 8.90371094 2.60351562 8.90039062 C1.2148431 8.89203401 -0.17382877 8.88356905 -1.5625 8.875 C-2.95507656 8.86998666 -4.34765481 8.86542347 -5.74023438 8.86132812 C-9.1601987 8.84949434 -12.58007844 8.8330088 -16 8.8125 C-16 7.1625 -16 5.5125 -16 3.8125 C-15.40832031 3.77511719 -14.81664063 3.73773438 -14.20703125 3.69921875 C-9.37105123 3.29687784 -4.16820395 -0.39076912 0 0 Z " fill="#F3AC46" transform="translate(140,212.1875)"/>
<path d="M0 0 C2.97 0 5.94 0 9 0 C9 10.23 9 20.46 9 31 C6.36 31 3.72 31 1 31 C0 30 0 30 -0.11352539 27.13256836 C-0.10828857 25.88096924 -0.10305176 24.62937012 -0.09765625 23.33984375 C-0.0962413 22.67537735 -0.09482635 22.01091095 -0.09336853 21.3263092 C-0.08775518 19.19666101 -0.07520054 17.06711661 -0.0625 14.9375 C-0.05748671 13.49674631 -0.05292351 12.05599097 -0.04882812 10.61523438 C-0.03778145 7.07678898 -0.02050792 3.53840461 0 0 Z M2 2 C2 11.24 2 20.48 2 30 C3.65 30 5.3 30 7 30 C7 20.76 7 11.52 7 2 C5.35 2 3.7 2 2 2 Z " fill="#452F1E" transform="translate(49,158)"/>
<path d="M0 0 C3.96 0.33 7.92 0.66 12 1 C12.02685412 3.31243792 12.04632841 5.6249627 12.0625 7.9375 C12.07410156 9.22527344 12.08570313 10.51304687 12.09765625 11.83984375 C12 15 12 15 11 16 C8.85441173 16.08775605 6.70595579 16.10695219 4.55859375 16.09765625 C3.25341797 16.09443359 1.94824219 16.09121094 0.60351562 16.08789062 C-0.7851569 16.07953401 -2.17382877 16.07106905 -3.5625 16.0625 C-4.95507656 16.05748666 -6.34765481 16.05292347 -7.74023438 16.04882812 C-11.1601987 16.03699434 -14.58007844 16.0205088 -18 16 C-18.66 14.68 -19.32 13.36 -20 12 C-9.77 12.33 0.46 12.66 11 13 C11 9.37 11 5.74 11 2 C8.02148438 2.09765625 8.02148438 2.09765625 5.04296875 2.1953125 C3 2 3 2 0 0 Z " fill="#C96623" transform="translate(144,214)"/>
<path d="M0 0 C3.63 0 7.26 0 11 0 C11 10.89 11 21.78 11 33 C9 31 9 31 8.77294922 28.11083984 C8.78342285 26.90637207 8.79389648 25.7019043 8.8046875 24.4609375 C8.81435547 22.50800781 8.81435547 22.50800781 8.82421875 20.515625 C8.84093071 19.13541405 8.85786061 17.75520571 8.875 16.375 C8.88502994 14.98698548 8.89415577 13.59896411 8.90234375 12.2109375 C8.92598137 8.80711974 8.95893133 5.40364494 9 2 C8.05125 2.020625 7.1025 2.04125 6.125 2.0625 C3 2 3 2 1 1 C1.00523682 1.58491211 1.01047363 2.16982422 1.01586914 2.77246094 C1.03670158 5.43162963 1.04968007 8.09078111 1.0625 10.75 C1.07087891 11.67039063 1.07925781 12.59078125 1.08789062 13.5390625 C1.09111328 14.42851562 1.09433594 15.31796875 1.09765625 16.234375 C1.10289307 17.05131836 1.10812988 17.86826172 1.11352539 18.70996094 C1.00299021 20.93968135 0.62055567 22.86133755 0 25 C-0.66 25 -1.32 25 -2 25 C-1.84152588 24.27530518 -1.68305176 23.55061035 -1.51977539 22.80395508 C-1.03901777 20.21048338 -0.80242678 17.7680216 -0.68359375 15.13671875 C-0.64169922 14.25048828 -0.59980469 13.36425781 -0.55664062 12.45117188 C-0.51732422 11.53916016 -0.47800781 10.62714844 -0.4375 9.6875 C-0.37272461 8.29047852 -0.37272461 8.29047852 -0.30664062 6.86523438 C-0.20102876 4.57697723 -0.10005565 2.28850682 0 0 Z " fill="#0C2748" transform="translate(83,174)"/>
<path d="M0 0 C0.33 0.66 0.66 1.32 1 2 C4.95121228 1.88182083 8.90218229 1.75757767 12.85302734 1.62768555 C14.85894807 1.56301749 16.86502228 1.50316894 18.87109375 1.44335938 C20.75634766 1.38051758 20.75634766 1.38051758 22.6796875 1.31640625 C23.84226074 1.27974854 25.00483398 1.24309082 26.20263672 1.20532227 C28.9535501 1.18178341 28.9535501 1.18178341 31 0 C31 1.32 31 2.64 31 4 C26.90658501 4.02469575 22.81319879 4.04285793 18.71972656 4.05493164 C17.32681523 4.0599643 15.9339092 4.06679098 14.54101562 4.07543945 C12.54038754 4.08755152 10.53972112 4.09270412 8.5390625 4.09765625 C7.33459473 4.10289307 6.13012695 4.10812988 4.88916016 4.11352539 C2 4 2 4 0 3 C0 2.01 0 1.02 0 0 Z " fill="#F5832B" transform="translate(124,223)"/>
<path d="M0 0 C0.66 0.33 1.32 0.66 2 1 C0.56974806 2.65213589 -0.86945545 4.29652589 -2.3125 5.9375 C-3.11300781 6.85402344 -3.91351563 7.77054688 -4.73828125 8.71484375 C-7 11 -7 11 -10 12 C-8.62968895 6.34746692 -4.32310587 3.4886459 0 0 Z " fill="#164883" transform="translate(125,42)"/>
<path d="M0 0 C0.639375 0.2475 1.27875 0.495 1.9375 0.75 C2.2675 1.74 2.5975 2.73 2.9375 3.75 C0.2975 3.75 -2.3425 3.75 -5.0625 3.75 C-4.7325 2.76 -4.4025 1.77 -4.0625 0.75 C-2.0625 -0.25 -2.0625 -0.25 0 0 Z " fill="#E0B44F" transform="translate(140.0625,212.25)"/>
<path d="M0 0 C1.32 0.33 2.64 0.66 4 1 C0.535 3.97 0.535 3.97 -3 7 C-2.25 2.25 -2.25 2.25 0 0 Z " fill="#081A30" transform="translate(115,39)"/>
<path d="M0 0 C0.66 0.33 1.32 0.66 2 1 C-0.38957269 4.24299151 -2.2047869 6.50902342 -6 8 C-4.55746343 4.63408134 -2.66735273 2.48952921 0 0 Z " fill="#14447A" transform="translate(111,33)"/>
</svg>
